<svg xmlns="http://www.w3.org/2000/svg" width="289" height="60" viewBox="0 0 207 43">
  <g fill="#FFF">
    <polygon points="118 10 118 2 123.778 2 123.778 3.614 120 3.614 120 5.124 123.593 5.124 123.593 6.67 120 6.67 120 8.352 124 8.352 124 10"/>
    <rect width="2" height="8" x="126" y="2"/>
    <polygon points="133.887 10 130.783 4.747 130.75 4.747 130.816 10 129 10 129 2 131.113 2 134.217 7.219 134.25 7.219 134.184 2 136 2 136 10"/>
    <path d="M146,5.94849785 C146,6.63519313 145.870968,7.25321888 145.645161,7.76824034 C145.387097,8.2832618 145.064516,8.69527897 144.677419,9.03862661 C144.290323,9.38197425 143.83871,9.6223176 143.322581,9.75965665 C142.806452,9.89699571 142.322581,10 141.806452,10 L139,10 L139,2 L141.709677,2 C142.258065,2 142.774194,2.06866953 143.290323,2.20600858 C143.806452,2.34334764 144.258065,2.54935622 144.677419,2.8583691 C145.096774,3.16738197 145.419355,3.57939914 145.645161,4.0944206 C145.870968,4.54077253 146,5.19313305 146,5.94849785 M144.129032,5.94849785 C144.129032,5.50214592 144.064516,5.12446352 143.935484,4.81545064 C143.806452,4.50643777 143.612903,4.26609442 143.387097,4.0944206 C143.16129,3.92274678 142.903226,3.78540773 142.612903,3.7167382 C142.322581,3.64806867 142,3.61373391 141.709677,3.61373391 L140.806452,3.61373391 L140.806452,8.2832618 L141.677419,8.2832618 C142,8.2832618 142.322581,8.24892704 142.612903,8.14592275 C142.903226,8.07725322 143.193548,7.93991416 143.419355,7.76824034 C143.645161,7.59656652 143.83871,7.35622318 143.967742,7.0472103 C144.032258,6.73819742 144.129032,6.39484979 144.129032,5.94849785"/>
    <polygon points="152.078 10 152.078 6.635 148.956 6.635 148.956 10 147 10 147 2 148.956 2 148.956 5.021 152.078 5.021 152.078 2 154 2 154 10"/>
    <path d="M165,5.96747967 C165,6.55284553 164.894531,7.10569106 164.648438,7.62601626 C164.4375,8.11382114 164.121094,8.53658537 163.699219,8.89430894 C163.3125,9.25203252 162.820312,9.51219512 162.292969,9.70731707 C161.730469,9.90243902 161.132812,10 160.5,10 C159.867188,10 159.269531,9.90243902 158.707031,9.70731707 C158.179688,9.51219512 157.6875,9.25203252 157.300781,8.89430894 C156.914062,8.53658537 156.597656,8.11382114 156.351562,7.62601626 C156.140625,7.13821138 156,6.58536585 156,5.96747967 C156,5.3495935 156.105469,4.82926829 156.351562,4.30894309 C156.5625,3.82113821 156.878906,3.39837398 157.300781,3.07317073 C157.6875,2.71544715 158.179688,2.45528455 158.707031,2.29268293 C159.269531,2.09756098 159.832031,2 160.5,2 C161.132812,2 161.730469,2.09756098 162.292969,2.29268293 C162.855469,2.48780488 163.3125,2.74796748 163.699219,3.07317073 C164.085938,3.43089431 164.402344,3.82113821 164.648438,4.30894309 C164.894531,4.82926829 165,5.38211382 165,5.96747967 M162.890625,5.96747967 C162.890625,5.64227642 162.820312,5.31707317 162.714844,5.05691057 C162.609375,4.76422764 162.433594,4.53658537 162.222656,4.30894309 C162.011719,4.11382114 161.765625,3.95121951 161.484375,3.82113821 C161.203125,3.69105691 160.886719,3.65853659 160.535156,3.65853659 C160.183594,3.65853659 159.867188,3.72357724 159.585938,3.82113821 C159.304688,3.95121951 159.058594,4.11382114 158.847656,4.30894309 C158.636719,4.50406504 158.496094,4.76422764 158.355469,5.05691057 C158.25,5.3495935 158.179688,5.64227642 158.179688,5.96747967 C158.179688,6.32520325 158.25,6.61788618 158.355469,6.91056911 C158.460938,7.20325203 158.636719,7.46341463 158.847656,7.65853659 C159.058594,7.85365854 159.304688,8.01626016 159.585938,8.14634146 C159.867188,8.27642276 160.183594,8.30894309 160.535156,8.30894309 C160.886719,8.30894309 161.203125,8.24390244 161.484375,8.14634146 C161.765625,8.01626016 162.011719,7.85365854 162.222656,7.65853659 C162.433594,7.46341463 162.609375,7.20325203 162.714844,6.91056911 C162.820312,6.6504065 162.890625,6.32520325 162.890625,5.96747967"/>
    <polygon points="169.923 10 168.009 10 165 2 167.154 2 169 7.665 169.034 7.665 170.88 2 173 2"/>
    <polygon points="174 10 174 2 179.779 2 179.779 3.614 176.025 3.614 176.025 5.124 179.558 5.124 179.558 6.67 176.025 6.67 176.025 8.352 180 8.352 180 10"/>
    <polygon points="185.897 10 182.808 4.747 182.775 4.747 182.808 10 181 10 181 2 183.136 2 186.192 7.219 186.225 7.219 186.192 2 188 2 188 10"/>
    <polygon points="122.894 30.648 122.894 37 121.074 37 121.074 30.648 119 30.648 119 29 125 29 125 30.648"/>
    <polygon points="126 37 126 29 131.779 29 131.779 30.648 127.988 30.648 127.988 32.159 131.558 32.159 131.558 33.704 127.988 33.704 127.988 35.352 132 35.352 132 37"/>
    <path d="M137.715596,36.6761134 C137.233945,36.902834 136.655963,37 136.045872,37 C135.46789,37 134.922018,36.902834 134.440367,36.708502 C133.958716,36.51417 133.541284,36.2550607 133.155963,35.8987854 C132.802752,35.5425101 132.513761,35.1214575 132.321101,34.6356275 C132.12844,34.1497976 132,33.5991903 132,33.0161943 C132,32.4008097 132.09633,31.8502024 132.321101,31.3643725 C132.545872,30.8785425 132.802752,30.4574899 133.188073,30.1012146 C133.541284,29.7449393 133.990826,29.48583 134.472477,29.291498 C134.954128,29.097166 135.5,29 136.077982,29 C136.623853,29 137.137615,29.097166 137.651376,29.291498 C138.165138,29.48583 138.582569,29.7449393 138.90367,30.1336032 L137.683486,31.3643725 C137.522936,31.1376518 137.298165,30.9433198 137.009174,30.8461538 C136.720183,30.7165992 136.463303,30.6842105 136.174312,30.6842105 C135.853211,30.6842105 135.56422,30.7489879 135.307339,30.8461538 C135.050459,30.9757085 134.825688,31.1376518 134.633028,31.3319838 C134.440367,31.5263158 134.279817,31.7854251 134.183486,32.0769231 C134.087156,32.3684211 134.022936,32.659919 134.022936,32.9838057 C134.022936,33.340081 134.087156,33.6315789 134.183486,33.9230769 C134.279817,34.2145749 134.440367,34.4412955 134.633028,34.6680162 C134.825688,34.8623482 135.050459,35.0242915 135.307339,35.1538462 C135.56422,35.2834008 135.853211,35.3157895 136.174312,35.3157895 C136.527523,35.3157895 136.848624,35.2510121 137.105505,35.0890688 C137.362385,34.9595142 137.587156,34.7651822 137.747706,34.5384615 L139,35.7368421 C138.614679,36.1578947 138.197248,36.4493927 137.715596,36.6761134"/>
    <polygon points="146.044 37 146.044 33.67 142.922 33.67 142.922 37 141 37 141 29 142.922 29 142.922 32.021 146.044 32.021 146.044 29 148 29 148 37"/>
    <polygon points="154.887 37 151.783 31.781 151.783 31.781 151.816 37 150 37 150 29 152.113 29 155.217 34.219 155.25 34.219 155.217 29 157 29 157 37"/>
    <path d="M167,32.9674797 C167,33.5528455 166.894531,34.1056911 166.648438,34.6260163 C166.4375,35.1138211 166.121094,35.5365854 165.699219,35.8943089 C165.3125,36.2520325 164.820312,36.5121951 164.292969,36.7073171 C163.730469,36.902439 163.132812,37 162.5,37 C161.867188,37 161.269531,36.902439 160.707031,36.7073171 C160.179688,36.5121951 159.6875,36.2520325 159.300781,35.8943089 C158.914062,35.5365854 158.597656,35.1138211 158.351562,34.6260163 C158.140625,34.1382114 158,33.5853659 158,32.9674797 C158,32.3495935 158.105469,31.8292683 158.351562,31.3089431 C158.5625,30.8211382 158.878906,30.398374 159.300781,30.0731707 C159.6875,29.7154472 160.179688,29.4552846 160.707031,29.2926829 C161.269531,29.097561 161.832031,29 162.5,29 C163.132812,29 163.730469,29.097561 164.292969,29.2926829 C164.855469,29.4878049 165.3125,29.7479675 165.699219,30.0731707 C166.085938,30.4308943 166.402344,30.8211382 166.648438,31.3089431 C166.894531,31.796748 167,32.3495935 167,32.9674797 M164.890625,32.9674797 C164.890625,32.6422764 164.820312,32.3170732 164.714844,32.0569106 C164.609375,31.7642276 164.433594,31.5365854 164.222656,31.3089431 C164.011719,31.1138211 163.765625,30.9512195 163.484375,30.8211382 C163.203125,30.6910569 162.886719,30.6585366 162.535156,30.6585366 C162.183594,30.6585366 161.867188,30.7235772 161.585938,30.8211382 C161.304688,30.9512195 161.058594,31.1138211 160.847656,31.3089431 C160.636719,31.504065 160.496094,31.7642276 160.355469,32.0569106 C160.25,32.3495935 160.179688,32.6422764 160.179688,32.9674797 C160.179688,33.3252033 160.25,33.6178862 160.355469,33.9105691 C160.460938,34.203252 160.636719,34.4634146 160.847656,34.6585366 C161.058594,34.8536585 161.304688,35.0162602 161.585938,35.1463415 C161.867188,35.2764228 162.183594,35.3089431 162.535156,35.3089431 C162.886719,35.3089431 163.203125,35.2439024 163.484375,35.1463415 C163.765625,35.0162602 164.011719,34.8536585 164.222656,34.6585366 C164.433594,34.4634146 164.609375,34.203252 164.714844,33.9105691 C164.820312,33.6178862 164.890625,33.2926829 164.890625,32.9674797"/>
    <polygon points="169 37 169 29 170.905 29 170.905 35.318 174 35.318 174 37"/>
    <path d="M183 32.9674797C183 33.5528455 182.894118 34.1056911 182.647059 34.6260163 182.435294 35.1138211 182.117647 35.5365854 181.694118 35.8943089 181.305882 36.2520325 180.811765 36.5121951 180.282353 36.7073171 179.717647 36.902439 179.117647 37 178.482353 37 177.847059 37 177.247059 36.902439 176.682353 36.7073171 176.117647 36.5121951 175.658824 36.2520325 175.270588 35.8943089 174.882353 35.5365854 174.564706 35.1138211 174.317647 34.6260163 174.105882 34.1382114 174 33.5853659 174 32.9674797 174 32.3495935 174.105882 31.8292683 174.317647 31.3089431 174.529412 30.8211382 174.847059 30.398374 175.270588 30.0731707 175.658824 29.7154472 176.152941 29.4552846 176.682353 29.2926829 177.211765 29.097561 177.811765 29 178.482353 29 179.117647 29 179.717647 29.097561 180.282353 29.2926829 180.847059 29.4878049 181.305882 29.7479675 181.694118 30.0731707 182.082353 30.4308943 182.4 30.8211382 182.647059 31.3089431 182.858824 31.796748 183 32.3495935 183 32.9674797M180.847059 32.9674797C180.847059 32.6422764 180.776471 32.3170732 180.670588 32.0569106 180.564706 31.7642276 180.388235 31.5365854 180.176471 31.3089431 179.964706 31.1138211 179.717647 30.9512195 179.435294 30.8211382 179.152941 30.6910569 178.835294 30.6585366 178.482353 30.6585366 178.129412 30.6585366 177.811765 30.7235772 177.529412 30.8211382 177.247059 30.9512195 177 31.1138211 176.788235 31.3089431 176.576471 31.504065 176.4 31.7642276 176.294118 32.0569106 176.188235 32.3495935 176.117647 32.6422764 176.117647 32.9674797 176.117647 33.3252033 176.188235 33.6178862 176.294118 33.9105691 176.4 34.203252 176.576471 34.4634146 176.788235 34.6585366 177 34.8536585 177.247059 35.0162602 177.529412 35.1463415 177.811765 35.2764228 178.129412 35.3089431 178.482353 35.3089431 178.835294 35.3089431 179.152941 35.2439024 179.435294 35.1463415 179.717647 35.0162602 179.964706 34.8536585 180.176471 34.6585366 180.388235 34.4634146 180.564706 34.203252 180.670588 33.9105691 180.811765 33.6178862 180.847059 33.2926829 180.847059 32.9674797M189.695455 36.805668C189.218182 36.9352227 188.677273 37 188.104545 37 187.5 37 186.959091 36.902834 186.45 36.708502 185.940909 36.51417 185.527273 36.2550607 185.145455 35.8987854 184.795455 35.5425101 184.509091 35.1214575 184.318182 34.6356275 184.127273 34.1497976 184 33.5991903 184 33.0161943 184 32.4008097 184.095455 31.8502024 184.318182 31.3643725 184.540909 30.8785425 184.795455 30.4574899 185.177273 30.1012146 185.527273 29.7449393 185.972727 29.48583 186.45 29.291498 186.927273 29.097166 187.468182 29 188.040909 29 188.613636 29 189.186364 29.097166 189.663636 29.2591093 190.172727 29.4534413 190.586364 29.6801619 190.904545 30.0040486L189.759091 31.2995951C189.568182 31.1052632 189.345455 30.9109312 189.059091 30.7813765 188.772727 30.6518219 188.454545 30.5870445 188.072727 30.5870445 187.754545 30.5870445 187.468182 30.6518219 187.213636 30.7489879 186.959091 30.8785425 186.704545 31.0404858 186.513636 31.2348178 186.322727 31.4615385 186.163636 31.6882591 186.068182 31.9797571 185.972727 32.2712551 185.909091 32.5951417 185.909091 32.9190283 185.909091 33.2753036 185.972727 33.5991903 186.068182 33.8906883 186.163636 34.1821862 186.322727 34.4412955 186.513636 34.6356275 186.704545 34.8299595 186.927273 35.0242915 187.213636 35.1214575 187.5 35.2510121 187.818182 35.2834008 188.2 35.2834008 188.422727 35.2834008 188.613636 35.2834008 188.804545 35.2186235 188.995455 35.1862348 189.154545 35.1214575 189.345455 35.0566802L189.345455 33.7935223 187.945455 33.7935223 187.945455 32.3360324 191 32.3360324 191 36.3198381C190.618182 36.51417 190.172727 36.6761134 189.695455 36.805668"/>
    <polygon points="196.923 33.635 196.923 37 195.009 37 195.009 33.635 192 29 194.325 29 196.034 31.953 197.744 29 200 29"/>
    <path d="M124.79,22.125523 C124.64,22.5271967 124.46,22.8284519 124.19,23.1297071 C123.92,23.3974895 123.62,23.6317992 123.23,23.7656904 C122.87,23.9330544 122.45,24 122,24 C121.55,24 121.13,23.9330544 120.74,23.7656904 C120.38,23.5983264 120.05,23.3974895 119.81,23.1297071 C119.54,22.8619247 119.36,22.5271967 119.21,22.125523 C119.06,21.7238494 119,21.3221757 119,20.8535565 L119,16 L120.68,16 L120.68,20.6861925 C120.68,20.8870293 120.71,21.0878661 120.74,21.2887029 C120.8,21.4895397 120.86,21.6569038 120.98,21.790795 C121.07,21.9246862 121.22,22.0585774 121.4,22.1589958 C121.58,22.2594142 121.76,22.292887 122,22.292887 C122.24,22.292887 122.45,22.2594142 122.6,22.1589958 C122.78,22.0585774 122.9,21.958159 123.02,21.790795 C123.14,21.6569038 123.2,21.4560669 123.26,21.2887029 C123.32,21.0878661 123.32,20.8870293 123.32,20.6861925 L123.32,16 L125,16 L125,20.8535565 C125,21.3221757 124.91,21.7573222 124.79,22.125523"/>
    <polygon points="131.887 24 128.783 18.781 128.75 18.781 128.816 24 127 24 127 16 129.113 16 132.217 21.219 132.25 21.219 132.217 16 134 16 134 24"/>
    <rect width="2" height="8" x="136" y="16"/>
    <polygon points="143.936 24 141.996 24 139 16 141.145 16 142.983 21.665 143.051 21.665 144.855 16 147 16"/>
    <polygon points="148 24 148 16 153.778 16 153.778 17.614 150 17.614 150 19.124 153.593 19.124 153.593 20.704 150 20.704 150 22.352 154 22.352 154 24"/>
    <path d="M158.926702 23.965812L157.324607 20.8205128 156.727749 20.8205128 156.727749 23.965812 155 23.965812 155 16 157.795812 16C158.141361 16 158.486911 16.034188 158.832461 16.1025641 159.17801 16.1709402 159.460733 16.3076923 159.743455 16.5128205 159.994764 16.7179487 160.21466 16.957265 160.371728 17.2649573 160.528796 17.5726496 160.623037 17.9487179 160.623037 18.4273504 160.623037 18.974359 160.497382 19.4188034 160.21466 19.7948718 159.931937 20.1709402 159.586387 20.4102564 159.08377 20.5811966L161 24 158.926702 24 158.926702 23.965812zM158.832461 18.4273504C158.832461 18.2564103 158.801047 18.0854701 158.706806 17.982906 158.643979 17.8803419 158.549738 17.7777778 158.424084 17.7094017 158.298429 17.6410256 158.172775 17.6068376 158.04712 17.5726496 157.921466 17.5384615 157.764398 17.5384615 157.638743 17.5384615L156.696335 17.5384615 156.696335 19.3846154 157.544503 19.3846154C157.701571 19.3846154 157.827225 19.3846154 157.984293 19.3504274 158.141361 19.3162393 158.267016 19.2820513 158.39267 19.2136752 158.518325 19.1452991 158.612565 19.042735 158.706806 18.9059829 158.801047 18.8034188 158.832461 18.6324786 158.832461 18.4273504M167.793296 18.1788618C167.625698 17.9837398 167.424581 17.8211382 167.156425 17.6910569 166.888268 17.5609756 166.653631 17.5284553 166.385475 17.5284553 166.251397 17.5284553 166.117318 17.5284553 166.01676 17.5609756 165.882682 17.5934959 165.782123 17.6260163 165.681564 17.6910569 165.581006 17.7560976 165.480447 17.8211382 165.413408 17.9186992 165.346369 18.0162602 165.312849 18.1463415 165.312849 18.2764228 165.312849 18.4065041 165.346369 18.504065 165.379888 18.601626 165.446927 18.699187 165.513966 18.7642276 165.614525 18.8292683 165.715084 18.8943089 165.849162 18.9593496 165.98324 18.9918699 166.117318 19.0569106 166.284916 19.0894309 166.486034 19.1544715 166.75419 19.2520325 167.022346 19.3495935 167.324022 19.4471545 167.625698 19.5447154 167.860335 19.6747967 168.094972 19.8699187 168.329609 20.0325203 168.530726 20.2601626 168.664804 20.5203252 168.832402 20.7804878 168.899441 21.0731707 168.899441 21.4634146 168.899441 21.8861789 168.832402 22.2764228 168.664804 22.601626 168.497207 22.9268293 168.26257 23.1869919 167.994413 23.3821138 167.726257 23.5772358 167.391061 23.7398374 167.022346 23.8373984 166.653631 23.9349593 166.284916 24 165.916201 24 165.346369 24 164.810056 23.902439 164.307263 23.7073171 163.77095 23.5121951 163.335196 23.2520325 163 22.8943089L164.240223 21.6585366C164.441341 21.8861789 164.675978 22.0813008 165.011173 22.2439024 165.312849 22.4065041 165.648045 22.4715447 165.949721 22.4715447 166.083799 22.4715447 166.217877 22.4715447 166.351955 22.4390244 166.486034 22.4065041 166.586592 22.3739837 166.687151 22.3089431 166.787709 22.2439024 166.854749 22.1463415 166.921788 22.0487805 166.988827 21.9512195 167.022346 21.8211382 167.022346 21.6585366 167.022346 21.5284553 166.988827 21.398374 166.921788 21.300813 166.854749 21.203252 166.75419 21.1056911 166.620112 21.0406504 166.486034 20.9430894 166.318436 20.8780488 166.117318 20.8130081 165.916201 20.7479675 165.681564 20.6829268 165.413408 20.5853659 165.178771 20.5203252 164.910615 20.4227642 164.675978 20.2926829 164.441341 20.195122 164.240223 20.0325203 164.039106 19.8699187 163.837989 19.7073171 163.703911 19.5121951 163.569832 19.2520325 163.469274 19.0243902 163.402235 18.7317073 163.402235 18.3739837 163.402235 17.9512195 163.502793 17.5934959 163.670391 17.300813 163.837989 17.0081301 164.072626 16.7479675 164.374302 16.5528455 164.675978 16.3577236 164.977654 16.2276423 165.346369 16.1300813 165.715084 16.0325203 166.083799 16 166.452514 16 166.888268 16 167.357542 16.0650407 167.793296 16.2276423 168.26257 16.3902439 168.664804 16.6178862 169 16.9105691L167.793296 18.1788618z"/>
    <rect width="2" height="8" x="169" y="16"/>
    <polygon points="176.894 17.648 176.894 24 175.106 24 175.106 17.648 173 17.648 173 16 179 16 179 17.648"/>
    <polygon points="184.944 20.601 184.944 24 182.987 24 182.987 20.601 180 16 182.335 16 184.052 18.953 185.768 16 188 16"/>
    <path d="M201,19.9674797 C201,20.5528455 200.894118,21.1056911 200.647059,21.6260163 C200.435294,22.1138211 200.117647,22.5365854 199.694118,22.8943089 C199.305882,23.2520325 198.811765,23.5121951 198.282353,23.7073171 C197.717647,23.902439 197.117647,24 196.482353,24 C195.847059,24 195.247059,23.902439 194.682353,23.7073171 C194.152941,23.5121951 193.658824,23.2520325 193.270588,22.8943089 C192.882353,22.5365854 192.564706,22.1138211 192.317647,21.6260163 C192.105882,21.1382114 192,20.5853659 192,19.9674797 C192,19.3495935 192.105882,18.8292683 192.317647,18.3089431 C192.529412,17.8211382 192.847059,17.398374 193.270588,17.0731707 C193.658824,16.7154472 194.152941,16.4552846 194.682353,16.2926829 C195.211765,16.097561 195.811765,16 196.482353,16 C197.117647,16 197.717647,16.097561 198.282353,16.2926829 C198.847059,16.4878049 199.305882,16.7479675 199.694118,17.0731707 C200.082353,17.4308943 200.4,17.8211382 200.647059,18.3089431 C200.858824,18.796748 201,19.3495935 201,19.9674797 M198.847059,19.9674797 C198.847059,19.6422764 198.776471,19.3170732 198.670588,19.0569106 C198.564706,18.7642276 198.388235,18.5365854 198.176471,18.3089431 C197.964706,18.1138211 197.717647,17.9512195 197.435294,17.8211382 C197.152941,17.6910569 196.835294,17.6585366 196.482353,17.6585366 C196.129412,17.6585366 195.811765,17.7235772 195.529412,17.8211382 C195.247059,17.9512195 195,18.1138211 194.788235,18.3089431 C194.576471,18.504065 194.4,18.7642276 194.294118,19.0569106 C194.188235,19.3495935 194.117647,19.6422764 194.117647,19.9674797 C194.117647,20.3252033 194.188235,20.6178862 194.294118,20.9105691 C194.4,21.203252 194.576471,21.4634146 194.788235,21.6585366 C195,21.8536585 195.247059,22.0162602 195.529412,22.1463415 C195.811765,22.2764228 196.129412,22.3089431 196.482353,22.3089431 C196.835294,22.3089431 197.152941,22.2439024 197.435294,22.1463415 C197.717647,22.0162602 197.964706,21.8536585 198.176471,21.6585366 C198.388235,21.4634146 198.564706,21.203252 198.670588,20.9105691 C198.811765,20.6178862 198.847059,20.2926829 198.847059,19.9674797"/>
    <polygon points="203.182 17.648 203.182 19.296 206.688 19.296 206.688 20.876 203.182 20.876 203.182 24 201 24 201 16 207 16 207 17.648"/>
    <polygon points="18.848 9.228 18.848 37 10.152 37 10.152 9.228 0 9.228 0 2 29 2 29 9.228"/>
    <path d="M61.9202247,29.5884615 C61.188764,31.3192308 60.1438202,32.8076923 58.7853933,34.0538462 C57.4269663,35.3 55.7898876,36.2692308 53.8393258,36.9615385 C51.9235955,37.6538462 49.7640449,38 47.4303371,38 C45.0617978,38 42.9022472,37.6538462 40.9865169,36.9615385 C39.0707865,36.2692308 37.4685393,35.3 36.1449438,34.0538462 C34.8213483,32.8076923 33.811236,31.3192308 33.0797753,29.5884615 C32.3483146,27.8576923 32,25.9192308 32,23.8076923 L32,2 L40.6730337,2 L40.6730337,23.1153846 C40.6730337,24.0846154 40.8123596,24.9846154 41.0561798,25.85 C41.3,26.7153846 41.7179775,27.4769231 42.2404494,28.1346154 C42.7629213,28.8269231 43.4595506,29.3461538 44.3303371,29.7269231 C45.2011236,30.1076923 46.2460674,30.3153846 47.4651685,30.3153846 C48.6842697,30.3153846 49.7292135,30.1076923 50.6,29.7269231 C51.4707865,29.3461538 52.1674157,28.7923077 52.7247191,28.1346154 C53.2820225,27.4423077 53.6651685,26.6807692 53.9089888,25.85 C54.152809,24.9846154 54.2573034,24.0846154 54.2573034,23.1153846 L54.2573034,2 L63,2 L63,23.8076923 C63,25.9538462 62.6516854,27.8576923 61.9202247,29.5884615"/>
    <polygon points="68.296 43 86 0 79.67 0 62 43"/>
    <path d="M94,12 C86.8311346,12 81,17.8311346 81,25 C81,32.1688654 86.8311346,38 94,38 C98.5963061,38 103.295515,35.9762533 105.868074,32.3403694 L99.9683377,29.939314 C98.3905013,31.6886544 96.2638522,32.3746702 94,32.3746702 C90.707124,32.3746702 87.8944591,30.2137203 86.9683377,27.1952507 L106.794195,27.1952507 C106.931398,26.474934 107,25.7546174 107,25 C107,17.7968338 101.168865,12 94,12 M94,17.591029 C97.0870712,17.591029 99.7282322,19.4775726 100.825858,22.1530343 L87.1741425,22.1530343 C88.2717678,19.5118734 90.9129288,17.591029 94,17.591029"/>
  </g>
</svg>
