<svg xmlns="http://www.w3.org/2000/svg" width="1920" height="112" viewBox="0 0 1920 112">
  <g fill="#DE0A10" fill-rule="evenodd" transform="translate(0 .14)">
    <path d="M0,59.3555946 C102.253416,31.1721311 228.447321,19.8584159 378.581714,25.414449 C603.783304,33.7484987 981.864103,88.5473376 1084.88954,82.7852715 C1187.91497,77.0232054 1302.30979,-3.16750731 1666.7582,18.5953702 C1729.8041,22.3601284 1814.21803,35.9468699 1920,59.3555946 L1920,143.860085 L0,143.860085 L0,59.3555946 Z"/>
    <path fill-opacity=".62" d="M0,31.9186287 C313.210748,-1.90794604 557.030706,-4.07345194 731.459874,25.422111 C993.103627,69.6654554 1198.48739,59.1896163 1344.57027,18.3660561 C1441.95885,-8.84965074 1633.76876,-4.33212653 1920,31.9186287 L1920,143.860085 L0,143.860085 L0,31.9186287 Z"/>
  </g>
</svg>
